<svg width="71" height="71" viewBox="0 0 71 71" fill="none" xmlns="http://www.w3.org/2000/svg">
<path d="M70.5 35.5C70.5 54.83 54.83 70.5 35.5 70.5C16.17 70.5 0.5 54.83 0.5 35.5C0.5 16.17 16.17 0.5 35.5 0.5C54.83 0.5 70.5 16.17 70.5 35.5Z" fill="white" stroke="#FFAEAE"/>
<mask id="path-2-outside-1_498_959" maskUnits="userSpaceOnUse" x="27" y="27" width="18" height="17" fill="black">
<rect fill="white" x="27" y="27" width="18" height="17"/>
<path d="M43.26 36.18H36.68V42.76H35.3V36.18H28.72V34.82H35.3V28.24H36.68V34.82H43.26V36.18Z"/>
</mask>
<path d="M43.26 36.18H36.68V42.76H35.3V36.18H28.72V34.82H35.3V28.24H36.68V34.82H43.26V36.18Z" fill="#FFAEAE"/>
<path d="M43.26 36.18V37.18H44.26V36.18H43.26ZM36.68 36.18V35.18H35.68V36.18H36.68ZM36.68 42.76V43.76H37.68V42.76H36.68ZM35.3 42.76H34.3V43.76H35.3V42.76ZM35.3 36.18H36.3V35.18H35.3V36.18ZM28.72 36.18H27.72V37.18H28.72V36.18ZM28.72 34.82V33.82H27.72V34.82H28.72ZM35.3 34.82V35.82H36.3V34.82H35.3ZM35.3 28.24V27.24H34.3V28.24H35.3ZM36.68 28.24H37.68V27.24H36.68V28.24ZM36.68 34.82H35.68V35.82H36.68V34.82ZM43.26 34.82H44.26V33.82H43.26V34.82ZM43.26 35.18H36.68V37.18H43.26V35.18ZM35.68 36.18V42.76H37.68V36.18H35.68ZM36.68 41.76H35.3V43.76H36.68V41.76ZM36.3 42.76V36.18H34.3V42.76H36.3ZM35.3 35.18H28.72V37.18H35.3V35.18ZM29.72 36.18V34.82H27.72V36.18H29.72ZM28.72 35.82H35.3V33.82H28.72V35.82ZM36.3 34.82V28.24H34.3V34.82H36.3ZM35.3 29.24H36.68V27.24H35.3V29.24ZM35.68 28.24V34.82H37.68V28.24H35.68ZM36.68 35.82H43.26V33.82H36.68V35.82ZM42.26 34.82V36.18H44.26V34.82H42.26Z" fill="#FFAEAE" mask="url(#path-2-outside-1_498_959)"/>
</svg>
