<svg width="89" height="86" viewBox="0 0 89 86" fill="none" xmlns="http://www.w3.org/2000/svg">
<path d="M88.5 43C88.5 66.4561 68.8168 85.5 44.5 85.5C20.1832 85.5 0.5 66.4561 0.5 43C0.5 19.5439 20.1832 0.5 44.5 0.5C68.8168 0.5 88.5 19.5439 88.5 43Z" fill="white" stroke="white"/>
<g clip-path="url(#clip0_734_990)">
<path d="M29.91 23.05C30.1917 22.7207 30.5413 22.4563 30.9349 22.2751C31.3285 22.0938 31.7567 22 32.19 22H57.81C58.2433 22 58.6715 22.0938 59.0651 22.2751C59.4587 22.4563 59.8083 22.7207 60.09 23.05L67.917 32.182C68.6158 32.9975 69 34.036 69 35.11V35.875C69.0002 37.3599 68.5364 38.8078 67.6735 40.0163C66.8105 41.2247 65.5916 42.1334 64.187 42.6152C62.7825 43.0971 61.2624 43.1281 59.8394 42.7038C58.4164 42.2796 57.1614 41.4213 56.25 40.249C55.5846 41.1065 54.7317 41.8002 53.7566 42.2771C52.7816 42.7539 51.7104 43.0012 50.625 43C49.5396 43.0012 48.4684 42.7539 47.4934 42.2771C46.5183 41.8002 45.6654 41.1065 45 40.249C44.3346 41.1065 43.4817 41.8002 42.5066 42.2771C41.5316 42.7539 40.4604 43.0012 39.375 43C38.2896 43.0012 37.2184 42.7539 36.2434 42.2771C35.2683 41.8002 34.4154 41.1065 33.75 40.249C32.8386 41.4213 31.5836 42.2796 30.1606 42.7038C28.7376 43.1281 27.2175 43.0971 25.813 42.6152C24.4084 42.1334 23.1895 41.2247 22.3265 40.0163C21.4636 38.8078 20.9998 37.3599 21 35.875V35.11C21 34.036 21.3842 32.9975 22.083 32.182L29.91 23.05ZM35.25 35.875C35.25 36.969 35.6846 38.0182 36.4582 38.7918C37.2318 39.5654 38.281 40 39.375 40C40.469 40 41.5182 39.5654 42.2918 38.7918C43.0654 38.0182 43.5 36.969 43.5 35.875C43.5 35.4772 43.658 35.0956 43.9393 34.8143C44.2206 34.533 44.6022 34.375 45 34.375C45.3978 34.375 45.7794 34.533 46.0607 34.8143C46.342 35.0956 46.5 35.4772 46.5 35.875C46.5 36.969 46.9346 38.0182 47.7082 38.7918C48.4818 39.5654 49.531 40 50.625 40C51.719 40 52.7682 39.5654 53.5418 38.7918C54.3154 38.0182 54.75 36.969 54.75 35.875C54.75 35.4772 54.908 35.0956 55.1893 34.8143C55.4706 34.533 55.8522 34.375 56.25 34.375C56.6478 34.375 57.0294 34.533 57.3107 34.8143C57.592 35.0956 57.75 35.4772 57.75 35.875C57.75 36.969 58.1846 38.0182 58.9582 38.7918C59.7318 39.5654 60.781 40 61.875 40C62.969 40 64.0182 39.5654 64.7918 38.7918C65.5654 38.0182 66 36.969 66 35.875V35.11C66 34.7525 65.8724 34.4067 65.64 34.135L57.81 25H32.19L24.36 34.135C24.1276 34.4067 24 34.7525 24 35.11V35.875C24 36.969 24.4346 38.0182 25.2082 38.7918C25.9818 39.5654 27.031 40 28.125 40C29.219 40 30.2682 39.5654 31.0418 38.7918C31.8154 38.0182 32.25 36.969 32.25 35.875C32.25 35.4772 32.408 35.0956 32.6893 34.8143C32.9706 34.533 33.3522 34.375 33.75 34.375C34.1478 34.375 34.5294 34.533 34.8107 34.8143C35.092 35.0956 35.25 35.4772 35.25 35.875ZM25.5 44.5C25.8978 44.5 26.2794 44.658 26.5607 44.9393C26.842 45.2206 27 45.6022 27 46V64H30V49C30 48.2044 30.3161 47.4413 30.8787 46.8787C31.4413 46.3161 32.2044 46 33 46H42C42.7956 46 43.5587 46.3161 44.1213 46.8787C44.6839 47.4413 45 48.2044 45 49V64H63V46C63 45.6022 63.158 45.2206 63.4393 44.9393C63.7206 44.658 64.1022 44.5 64.5 44.5C64.8978 44.5 65.2794 44.658 65.5607 44.9393C65.842 45.2206 66 45.6022 66 46V64H67.5C67.8978 64 68.2794 64.158 68.5607 64.4393C68.842 64.7206 69 65.1022 69 65.5C69 65.8978 68.842 66.2794 68.5607 66.5607C68.2794 66.842 67.8978 67 67.5 67H22.5C22.1022 67 21.7206 66.842 21.4393 66.5607C21.158 66.2794 21 65.8978 21 65.5C21 65.1022 21.158 64.7206 21.4393 64.4393C21.7206 64.158 22.1022 64 22.5 64H24V46C24 45.6022 24.158 45.2206 24.4393 44.9393C24.7206 44.658 25.1022 44.5 25.5 44.5ZM33 64H42V49H33V64ZM48 49C48 48.2044 48.3161 47.4413 48.8787 46.8787C49.4413 46.3161 50.2044 46 51 46H57C57.7957 46 58.5587 46.3161 59.1213 46.8787C59.6839 47.4413 60 48.2044 60 49V58C60 58.7957 59.6839 59.5587 59.1213 60.1213C58.5587 60.6839 57.7957 61 57 61H51C50.2044 61 49.4413 60.6839 48.8787 60.1213C48.3161 59.5587 48 58.7957 48 58V49ZM57 49H51V58H57V49Z" fill="#FF8E8E"/>
</g>
<defs>
<clipPath id="clip0_734_990">
<rect width="48" height="48" fill="white" transform="translate(21 19)"/>
</clipPath>
</defs>
</svg>
