<svg width="89" height="86" viewBox="0 0 89 86" fill="none" xmlns="http://www.w3.org/2000/svg">
<path d="M88.5 43C88.5 66.4561 68.8168 85.5 44.5 85.5C20.1832 85.5 0.5 66.4561 0.5 43C0.5 19.5439 20.1832 0.5 44.5 0.5C68.8168 0.5 88.5 19.5439 88.5 43Z" fill="white" stroke="white"/>
<g clip-path="url(#clip0_10_510)">
<path d="M15.8193 70.9699C16.0292 71.0283 16.2522 70.996 16.4399 70.88C16.6277 70.7641 16.7651 70.5738 16.8223 70.3504C18.5104 63.6251 25.3708 61.8821 29.4713 60.8391C30.4988 60.5784 31.3101 60.3719 31.8378 60.1286C36.5086 57.9639 38.0312 54.4814 38.4868 51.9404C38.5139 51.7892 38.5031 51.6331 38.4557 51.4877C38.4082 51.3424 38.3256 51.213 38.2164 51.1126C35.7843 48.8709 33.7324 45.5056 32.4376 41.6346C32.4008 41.5238 32.3434 41.422 32.2688 41.3354C30.5562 39.3474 29.5729 37.2456 29.5729 35.5709C29.5729 34.5926 29.9187 33.9364 30.6971 33.4411C30.8138 33.3667 30.9112 33.2625 30.9807 33.1378C31.0502 33.0132 31.0896 32.8721 31.0954 32.7271C31.4576 23.8126 37.4035 16.7951 44.6965 16.7496L44.8719 16.7619C52.201 16.8704 58.1092 24.0384 58.3206 33.0789C58.3238 33.2024 58.3514 33.3238 58.4017 33.4351C58.452 33.5464 58.5238 33.6451 58.6123 33.7246C59.1253 34.1884 59.3646 34.7764 59.3646 35.5744C59.3646 36.9761 58.6648 38.6999 57.3963 40.4254C57.3352 40.508 57.2886 40.6016 57.2586 40.7019C55.9475 45.1399 53.5941 49.0581 50.8047 51.4556C50.6888 51.555 50.6005 51.6862 50.5491 51.8351C50.4977 51.984 50.4852 52.145 50.513 52.3009C50.9686 54.8401 52.4911 58.3209 57.1619 60.4891C57.7142 60.7446 58.5714 60.9441 59.658 61.1944C63.7175 62.1324 70.5107 63.7056 72.1774 70.3504C72.2054 70.4614 72.2536 70.5654 72.3192 70.6565C72.3848 70.7477 72.4666 70.8241 72.5599 70.8814C72.6532 70.9388 72.7562 70.976 72.8629 70.9909C72.9697 71.0057 73.0781 70.998 73.1821 70.9681C73.286 70.9383 73.3834 70.8868 73.4688 70.8167C73.5541 70.7467 73.6257 70.6593 73.6794 70.5597C73.7331 70.4601 73.7679 70.3502 73.7819 70.2362C73.7958 70.1222 73.7886 70.0064 73.7606 69.8954C71.8349 62.2181 64.1387 60.4384 60.0054 59.4829C59.0466 59.2606 58.219 59.0699 57.8158 58.8809C54.7675 57.4669 52.8893 55.3126 52.2256 52.4671C55.056 49.8719 57.4241 45.8679 58.7779 41.3774C60.2152 39.3824 61.0051 37.3279 61.0051 35.5726C61.0051 34.4019 60.6511 33.4254 59.9497 32.6624C59.5596 22.8554 53.0057 15.1326 44.8719 15.0084L44.6277 15.0049C36.6414 15.0504 30.0596 22.5701 29.4844 32.2074C28.4584 33.0124 27.9373 34.1411 27.9373 35.5744C27.9373 37.6446 29.0337 40.1209 30.9528 42.3924C32.2787 46.2826 34.3338 49.7004 36.7807 52.0926C36.1202 54.9486 34.2404 57.1099 31.1855 58.5256C30.7906 58.7094 30.0039 58.9106 29.0927 59.1416C24.9283 60.1986 17.1796 62.1674 15.2391 69.8989C15.1831 70.1231 15.2127 70.3618 15.3215 70.5627C15.4303 70.7635 15.6094 70.91 15.8193 70.9699Z" fill="#FF8E8E"/>
</g>
<defs>
<clipPath id="clip0_10_510">
<rect width="59" height="56" fill="white" transform="translate(15 15)"/>
</clipPath>
</defs>
</svg>
