<svg width="89" height="86" viewBox="0 0 89 86" fill="none" xmlns="http://www.w3.org/2000/svg">
<path d="M88.5 43C88.5 66.4561 68.8168 85.5 44.5 85.5C20.1832 85.5 0.5 66.4561 0.5 43C0.5 19.5439 20.1832 0.5 44.5 0.5C68.8168 0.5 88.5 19.5439 88.5 43Z" fill="white" stroke="white"/>
<path d="M59.1764 33.0936L53.3225 24.6252C52.8887 23.9988 52.312 23.4851 51.6403 23.1264C50.9686 22.7678 50.2213 22.5746 49.4602 22.5629L38.351 22.4033H38.3281C32.5927 22.4033 28.1922 23.3641 25.358 28.0529C22.7193 32.4174 21.5938 39.852 21.5938 52.912V54.5081H25.2352L22.8911 66.4788H26.1393L28.4834 54.5081H29.5625C32.1655 54.5314 34.6731 53.5284 36.5439 51.7158C38.2352 50.0951 39.4551 47.878 40.072 45.3041L40.0776 45.2809L42.8111 32.1629H39.5549L36.9672 44.5813C36.1791 47.8413 33.8224 51.3159 29.5625 51.3159H24.7872C24.8738 40.017 25.9011 33.3182 28.0848 29.7055C29.9176 26.673 32.5966 25.5965 38.3171 25.595L49.4143 25.7546C49.668 25.7585 49.9172 25.8229 50.1411 25.9424C50.365 26.062 50.5572 26.2332 50.7018 26.442L57.3236 36.0204L66.2188 37.5052V39.197L64.7354 47.1196C64.2976 49.458 63.5492 50.6359 60.4803 51.0051L47.899 53.1607L47.8158 66.4788H51.0033L51.0698 55.8555L60.9012 54.1697C63.1285 53.8954 64.7717 53.1766 65.9241 51.9727C66.9092 50.9435 67.5088 49.6285 67.8684 47.708L69.4062 39.4936V34.801L59.1764 33.0936Z" fill="#FF8E8E"/>
</svg>
