<svg xmlns="http://www.w3.org/2000/svg" x="0px" y="0px" width="50" height="50" viewBox="0 0 48 48">
<path d="M 25.484375 3.984375 A 1.50015 1.50015 0 0 0 25.285156 4 L 12.5 4 C 10.032499 4 8 6.0324991 8 8.5 L 8 39.5 C 8 41.967501 10.032499 44 12.5 44 L 35.5 44 C 37.967501 44 40 41.967501 40 39.5 L 40 18.720703 A 1.50015 1.50015 0 0 0 39.646484 17.533203 A 1.50015 1.50015 0 0 0 39.560547 17.439453 L 39.544922 17.423828 L 26.560547 4.4394531 A 1.50015 1.50015 0 0 0 26.552734 4.4316406 A 1.50015 1.50015 0 0 0 26.544922 4.4238281 A 1.50015 1.50015 0 0 0 26.521484 4.4042969 A 1.50015 1.50015 0 0 0 26.431641 4.3242188 A 1.50015 1.50015 0 0 0 25.484375 3.984375 z M 12.5 7 L 24 7 L 24 15.5 C 24 17.967501 26.032499 20 28.5 20 L 37 20 L 37 39.5 C 37 40.346499 36.346499 41 35.5 41 L 12.5 41 C 11.653501 41 11 40.346499 11 39.5 L 11 8.5 C 11 7.6535009 11.653501 7 12.5 7 z M 27 9.1210938 L 34.878906 17 L 28.5 17 C 27.653501 17 27 16.346499 27 15.5 L 27 9.1210938 z M 16.5 26 A 1.5 1.5 0 0 0 16.5 29 A 1.5 1.5 0 0 0 16.5 26 z M 22.5 26 A 1.50015 1.50015 0 1 0 22.5 29 L 31.5 29 A 1.50015 1.50015 0 1 0 31.5 26 L 22.5 26 z M 16.5 32 A 1.50015 1.50015 0 1 0 16.5 35 L 25.5 35 A 1.50015 1.50015 0 1 0 25.5 32 L 16.5 32 z M 31.5 32 A 1.5 1.5 0 0 0 31.5 35 A 1.5 1.5 0 0 0 31.5 32 z"></path>
</svg>