<svg xmlns="http://www.w3.org/2000/svg" x="0px" y="0px" width="50" height="50" viewBox="0 0 48 48">
<path d="M 15.5 5 A 1.50015 1.50015 0 0 0 14.017578 6.2714844 L 12.017578 19.271484 A 1.50015 1.50015 0 0 0 12 19.5 L 12 24.5 C 12 26.414955 13.585045 28 15.5 28 L 18 28 L 18 38 A 1.50015 1.50015 0 0 0 18.126953 38.623047 C 18.449795 41.063853 20.476707 43 23 43 C 25.743657 43 28 40.743657 28 38 C 28 35.256343 25.743657 33 23 33 C 22.287957 33 21.615477 33.162529 21 33.435547 L 21 26.746094 A 1.50015 1.50015 0 0 0 21 26.259766 L 21 19.5 A 1.50015 1.50015 0 0 0 20.982422 19.271484 L 18.982422 6.2714844 A 1.50015 1.50015 0 0 0 17.5 5 L 15.5 5 z M 28.5 5 A 1.50015 1.50015 0 1 0 28.5 8 L 37.5 8 C 37.795045 8 38 8.2049548 38 8.5 L 38 39 C 38 39.570718 37.570718 40 37 40 C 36.429282 40 36 39.570718 36 39 L 36 26.5 A 1.50015 1.50015 0 0 0 34.5 25 L 28.5 25 A 1.50015 1.50015 0 1 0 28.5 28 L 33 28 L 33 39 C 33 41.191282 34.808718 43 37 43 C 39.191282 43 41 41.191282 41 39 L 41 8.5 C 41 6.5850452 39.414955 5 37.5 5 L 28.5 5 z M 16.5 9.8652344 L 18 19.615234 L 18 25 L 15.5 25 C 15.204955 25 15 24.795045 15 24.5 L 15 19.615234 L 16.5 9.8652344 z M 28.5 10 A 1.50015 1.50015 0 1 0 28.5 13 L 34.5 13 A 1.50015 1.50015 0 1 0 34.5 10 L 28.5 10 z M 28.5 15 A 1.50015 1.50015 0 1 0 28.5 18 L 34.5 18 A 1.50015 1.50015 0 1 0 34.5 15 L 28.5 15 z M 28.5 20 A 1.50015 1.50015 0 1 0 28.5 23 L 34.5 23 A 1.50015 1.50015 0 1 0 34.5 20 L 28.5 20 z M 12 28.740234 L 12 32.279297 C 11.527904 32.109157 11.027452 32 10.5 32 C 8.0324991 32 6 34.032499 6 36.5 L 6 38.5 C 6 40.967501 8.0324991 43 10.5 43 C 12.967501 43 15 40.967501 15 38.5 L 15 37.5 L 15 36.5 L 15 29.970703 C 13.86 29.870703 12.83 29.430234 12 28.740234 z M 10.5 35 C 11.346499 35 12 35.653501 12 36.5 L 12 37.5 L 12 38.5 C 12 39.346499 11.346499 40 10.5 40 C 9.6535009 40 9 39.346499 9 38.5 L 9 36.5 C 9 35.653501 9.6535009 35 10.5 35 z M 23 36 C 24.122343 36 25 36.877657 25 38 C 25 39.122343 24.122343 40 23 40 C 21.877657 40 21 39.122343 21 38 C 21 36.877657 21.877657 36 23 36 z"></path>
</svg>