<svg xmlns="http://www.w3.org/2000/svg" x="0px" y="0px" width="50" height="50" viewBox="0 0 48 48">
<path d="M 24 4 C 12.972066 4 4 12.972074 4 24 C 4 35.027926 12.972066 44 24 44 C 35.027934 44 44 35.027926 44 24 C 44 12.972074 35.027934 4 24 4 z M 24 7 C 33.406615 7 41 14.593391 41 24 C 41 33.406609 33.406615 41 24 41 C 14.593385 41 7 33.406609 7 24 C 7 14.593391 14.593385 7 24 7 z M 13.492188 14.980469 A 1.50015 1.50015 0 0 0 12.060547 16.923828 L 13.259766 21 L 12.5 21 A 1.50015 1.50015 0 1 0 12.5 24 L 14.142578 24 L 17.060547 33.923828 A 1.50015 1.50015 0 0 0 19.927734 33.960938 L 23.150391 24 L 24.849609 24 L 28.072266 33.960938 A 1.50015 1.50015 0 0 0 30.939453 33.923828 L 33.857422 24 L 35.5 24 A 1.50015 1.50015 0 1 0 35.5 21 L 34.740234 21 L 35.939453 16.923828 A 1.5005516 1.5005516 0 0 0 33.060547 16.076172 L 31.613281 21 L 27.033203 21 L 25.427734 16.039062 A 1.50015 1.50015 0 0 0 22.572266 16.039062 L 20.966797 21 L 16.386719 21 L 14.939453 16.076172 A 1.50015 1.50015 0 0 0 13.492188 14.980469 z M 17.269531 24 L 19.996094 24 L 18.568359 28.414062 L 17.269531 24 z M 28.003906 24 L 30.730469 24 L 29.431641 28.414062 L 28.003906 24 z"></path>
</svg>