<svg width="88" height="88" viewBox="0 0 88 88" fill="none" xmlns="http://www.w3.org/2000/svg">
<circle cx="44" cy="44" r="43.5" fill="white" stroke="#FF8E8E"/>
<circle cx="77" cy="72" r="8" fill="white"/>
<path d="M77 64C72.5817 64 69 67.5817 69 72C69 76.4185 72.5817 80 77 80C81.4185 80 85 76.4185 85 72C85 67.5817 81.4185 64 77 64ZM77 79.0157C73.1402 79.0157 70 75.8597 70 72C70 68.1402 73.1402 65 77 65C80.8598 65 84 68.1402 84 72C84 75.8597 80.8598 79.0157 77 79.0157ZM80.5 71.5H77.5V68.5C77.5 68.224 77.276 68 77 68C76.724 68 76.5 68.224 76.5 68.5V71.5H73.5C73.224 71.5 73 71.724 73 72C73 72.276 73.224 72.5 73.5 72.5H76.5V75.5C76.5 75.776 76.724 76 77 76C77.276 76 77.5 75.776 77.5 75.5V72.5H80.5C80.776 72.5 81 72.276 81 72C81 71.724 80.776 71.5 80.5 71.5Z" fill="#FF8E8E"/>
<g clip-path="url(#clip0_1544_996)">
<path d="M46.4098 34.9307L48.4551 22.7402C48.6234 21.7383 49.4999 21 50.527 21C51.1911 21 51.8109 21.3076 52.2093 21.835L53.7056 23.8125H58.3187C59.4431 23.8125 60.5234 24.2607 61.3202 25.0518L62.914 26.625H67.8723C69.0499 26.625 69.9973 27.5654 69.9973 28.7344V30.8438C69.9973 34.7285 66.8275 37.875 62.914 37.875H56.778L56.3265 40.5557L46.4098 34.9307ZM55.8306 43.5088V63.1875C55.8306 64.7432 54.5645 66 52.9973 66H50.164C48.5968 66 47.3306 64.7432 47.3306 63.1875V53.0625C45.2056 54.1436 42.7973 54.75 40.2473 54.75C37.6973 54.75 35.289 54.1436 33.164 53.0625V63.1875C33.164 64.7432 31.8978 66 30.3306 66H27.4973C25.9301 66 24.664 64.7432 24.664 63.1875V42.9551C22.114 41.9971 20.1129 39.8525 19.4223 37.1104L19.0859 35.748C18.7051 34.2451 19.626 32.7158 21.1489 32.3379C22.6718 31.96 24.2036 32.874 24.5843 34.3857L24.9296 35.748C25.2395 36.9961 26.3728 37.875 27.6744 37.875H45.8963L55.8306 43.5088ZM60.0806 28.0312C60.0806 27.6583 59.9314 27.3006 59.6657 27.0369C59.4 26.7732 59.0397 26.625 58.664 26.625C58.2883 26.625 57.9279 26.7732 57.6622 27.0369C57.3966 27.3006 57.2473 27.6583 57.2473 28.0312C57.2473 28.4042 57.3966 28.7619 57.6622 29.0256C57.9279 29.2893 58.2883 29.4375 58.664 29.4375C59.0397 29.4375 59.4 29.2893 59.6657 29.0256C59.9314 28.7619 60.0806 28.4042 60.0806 28.0312Z" fill="#FF8E8E"/>
</g>
<defs>
<clipPath id="clip0_1544_996">
<rect width="51" height="45" fill="white" transform="translate(18 21)"/>
</clipPath>
</defs>
</svg>
