<svg width="88" height="88" viewBox="0 0 88 88" fill="none" xmlns="http://www.w3.org/2000/svg">
<circle cx="44" cy="44" r="43.5" fill="white" stroke="#FF8E8E"/>
<circle cx="77" cy="72" r="8" fill="white"/>
<g clip-path="url(#clip0_1544_995)">
<path d="M77 64C72.5817 64 69 67.5817 69 72C69 76.4185 72.5817 80 77 80C81.4185 80 85 76.4185 85 72C85 67.5817 81.4185 64 77 64ZM77 79.0157C73.1402 79.0157 70 75.8597 70 72C70 68.1402 73.1402 65 77 65C80.8598 65 84 68.1402 84 72C84 75.8597 80.8598 79.0157 77 79.0157ZM80.5 71.5H77.5V68.5C77.5 68.224 77.276 68 77 68C76.724 68 76.5 68.224 76.5 68.5V71.5H73.5C73.224 71.5 73 71.724 73 72C73 72.276 73.224 72.5 73.5 72.5H76.5V75.5C76.5 75.776 76.724 76 77 76C77.276 76 77.5 75.776 77.5 75.5V72.5H80.5C80.776 72.5 81 72.276 81 72C81 71.724 80.776 71.5 80.5 71.5Z" fill="#FF8E8E"/>
</g>
<path d="M24.4258 27.2083V24.625H63.5737V27.2083H24.4258ZM24.6248 63.375V47.875H21.4473V45.2917L24.4258 32.375H63.5737L66.5548 45.2917V47.875H63.3748V63.375H60.7914V47.875H47.8748V63.375H24.6248ZM27.2081 60.7917H45.2914V47.875H27.2081V60.7917ZM24.0564 45.2917H63.9431L61.5458 34.9583H26.4538L24.0564 45.2917Z" fill="#FF8E8E"/>
<defs>
<clipPath id="clip0_1544_995">
<rect width="16" height="16" fill="white" transform="translate(69 64)"/>
</clipPath>
</defs>
</svg>
